<svg width="234" height="42" viewBox="0 0 234 42" fill="none" xmlns="http://www.w3.org/2000/svg">
<path d="M32.0949 37.5167C28.5288 39.3782 25.5048 38.6151 23.2439 35.37C21.2754 32.5457 19.3711 29.6786 17.4311 26.8329C17.0388 26.2552 16.6109 25.7061 16.0261 24.9073C15.4698 25.6633 15.0561 26.2053 14.671 26.7616C12.6597 29.7 10.6769 32.6598 8.62997 35.5768C6.54024 38.558 3.47339 39.2855 0 37.5595C0.299553 37.0603 0.563444 36.5682 0.877262 36.1046C4.27933 31.0979 7.64573 26.0627 11.1262 21.1059C12.0392 19.8008 12.139 18.8807 11.1619 17.5114C7.71705 12.6759 4.43623 7.72623 1.10549 2.8194C0.74175 2.28449 0.413668 1.72819 0.0784543 1.18616C2.51054 -0.796544 6.30487 -0.240246 8.24483 2.45566C10.3916 5.44398 12.4029 8.53215 14.4784 11.5704C14.9063 12.198 15.3699 12.7971 15.9904 13.6316C16.5396 12.9112 16.9747 12.3834 17.3598 11.82C19.3711 8.88162 21.3396 5.90756 23.3722 2.98343C25.4976 -0.0762096 28.5716 -0.78228 32.1306 1.02926C31.0822 2.5983 30.0551 4.16022 29.0067 5.70787C26.3036 9.68754 23.6504 13.7029 20.8617 17.6184C20.0058 18.8237 19.9559 19.6795 20.8189 20.9062C24.1925 25.7203 27.4519 30.6129 30.7541 35.477C31.182 36.1117 31.5957 36.7536 32.1021 37.5167H32.0949Z" fill="#C93B13"/>
<path d="M218.353 38.644C218.724 34.8997 220.713 32.81 224.187 32.3536C226.548 32.0398 227.04 31.4978 227.061 29.1727C227.104 24.2231 227.061 24.1803 222.147 24.1803C221.149 24.1803 220.15 24.1803 218.845 24.1803C218.845 27.1971 218.923 30.0286 218.823 32.8528C218.716 35.941 215.906 38.4444 212.704 38.3659C212.661 37.9166 212.583 37.4601 212.583 36.9965C212.583 26.9547 212.561 16.9199 212.583 6.87799C212.597 2.88405 214.837 0.466293 218.881 0.166748C218.881 1.52183 218.881 2.86266 218.881 4.21061C218.881 8.19028 218.923 12.17 218.859 16.1496C218.838 17.412 219.273 17.8043 220.5 17.7615C222.518 17.683 224.536 17.6973 226.555 17.7615C230.563 17.897 233.423 20.8782 233.452 24.8864C233.466 26.9618 233.323 29.0515 233.487 31.1198C233.794 34.9568 230.991 38.3302 226.99 38.6084C224.165 38.801 221.313 38.644 218.346 38.644H218.353Z" fill="black"/>
<path d="M118.038 32.3603C122.018 32.3603 125.869 32.396 129.713 32.3318C130.655 32.3175 132.288 32.9024 132.26 31.3191C132.238 29.7928 130.626 30.3491 129.663 30.3277C127.053 30.2564 124.436 30.3277 121.825 30.292C119.179 30.2564 117.917 29.0011 117.853 26.3338C117.81 24.6149 117.795 22.889 117.86 21.1702C117.931 19.1661 119.101 17.811 121.041 17.7825C126.853 17.704 132.666 17.7539 138.465 17.7539C138.878 21.0775 136.047 24.0159 132.331 24.1585C130.255 24.237 128.166 24.1014 126.097 24.2298C125.498 24.2655 124.935 24.8788 124.357 25.2283C124.935 25.5849 125.498 26.2268 126.083 26.2482C128.993 26.3552 131.903 26.2838 134.813 26.3052C137.523 26.3266 138.764 27.4963 138.85 30.1708C138.907 31.8896 138.928 33.6227 138.828 35.3344C138.7 37.638 137.48 38.7792 135.162 38.8006C131.66 38.8362 128.151 38.8576 124.65 38.8006C120.912 38.7364 118.487 36.4399 118.024 32.3603H118.038Z" fill="black"/>
<path d="M70.3239 11.2362C73.4906 11.5001 76.1509 14.3101 76.1723 17.2842C76.208 22.2695 76.1723 27.2619 76.1866 32.2472C76.1866 35.0857 76.9569 35.856 79.767 35.8631C81.7854 35.8702 83.8109 35.7775 85.8222 35.8845C90.0373 36.1056 93.0828 34.5009 94.8088 30.1361C96.5062 31.5268 98.111 32.7749 99.5945 34.1585C99.8013 34.3511 99.5374 35.2711 99.2736 35.7347C97.1981 39.3293 94.0456 41.5331 89.9232 41.69C83.8181 41.9253 77.6915 41.8041 71.5792 41.7542C71.1584 41.7542 70.3738 41.098 70.3667 40.7414C70.3025 30.9491 70.3168 21.1569 70.3168 11.2362H70.3239Z" fill="black"/>
<path d="M68.4979 3.64507C69.0399 3.88756 69.7389 3.98741 70.1026 4.39393C71.2509 5.67057 72.6203 5.92019 74.2536 5.89166C78.8824 5.81321 83.5112 5.84887 88.14 5.86313C94.7515 5.89166 99.0095 9.15813 100.55 15.5984C100.999 17.4812 102.469 16.4542 103.503 17.0604V28.6714C102.725 28.757 101.877 28.8425 100.693 28.9709C101.905 31.3673 104.508 32.0234 105.885 33.8635C105.814 34.0133 105.749 34.163 105.678 34.3128C105.107 34.0917 104.43 33.999 103.981 33.6281C92.3123 24.1069 80.6654 14.5571 69.0185 5.00016C68.719 4.75767 68.505 4.41533 68.2554 4.11579C68.3338 3.95888 68.4194 3.79484 68.4979 3.63794V3.64507ZM94.7943 25.1838C94.7943 22.5164 95.0511 20.3198 94.7373 18.2015C94.1596 14.229 91.0214 11.8184 86.9774 11.854C84.7878 11.8754 82.5911 11.8612 80.4015 11.8897C80.052 11.8897 79.7026 12.0252 78.9893 12.175C84.3385 16.5826 89.4024 20.7477 94.7943 25.1909V25.1838Z" fill="black"/>
<path d="M149.427 38.3006C149.427 36.6888 149.427 35.0413 149.427 33.4009C149.427 29.7778 149.405 26.1547 149.441 22.5388C149.448 21.5403 149.213 21.1124 148.093 20.9698C144.727 20.5561 142.744 18.3594 142.387 14.6009C144.206 14.6009 146.01 14.5438 147.808 14.6223C149.034 14.6793 149.505 14.2799 149.448 13.0104C149.355 10.9992 149.412 8.97368 149.427 6.95532C149.448 3.00417 151.445 0.714792 155.653 0.0515137C155.71 0.793245 155.824 1.52784 155.824 2.25531C155.824 12.2829 155.789 22.3106 155.81 32.3382C155.81 35.5762 152.579 38.7356 149.434 38.3006H149.427Z" fill="black"/>
<path d="M173.356 18.0683C173.356 21.1208 173.241 24.2018 173.413 27.2615C173.484 28.5452 173.912 29.9502 174.618 31.0129C175.567 32.4464 177.236 32.6105 178.797 32.0898C180.381 31.5621 181.372 30.3853 181.472 28.6665C181.558 27.2472 181.472 25.8208 181.529 24.3944C181.679 20.7428 184.047 18.268 187.727 17.9969C187.784 18.3108 187.891 18.6317 187.891 18.9598C187.898 22.105 187.955 25.2502 187.87 28.3883C187.706 34.2152 183.234 38.6513 177.564 38.7012C171.815 38.7512 167.279 34.3008 167.065 28.3669C167.008 26.8264 167.044 25.2859 167.065 23.7382C167.115 20.9853 169.911 17.7616 173.356 18.054V18.0683Z" fill="black"/>
<path d="M68.3906 16.3699C68.1196 19.5436 66.3008 21.6404 63.4123 22.211C62.7205 22.3465 62.0001 22.4036 61.294 22.4036C53.6412 22.4178 45.9954 22.4178 38.3426 22.4036C37.6436 22.4036 36.9447 22.2823 36.2814 22.2253C35.9533 19.615 37.8576 17.1045 40.5678 16.484C41.1955 16.3413 41.8588 16.27 42.5078 16.2629C50.7526 16.2486 58.9903 16.2486 67.2352 16.2629C67.5846 16.2629 67.9341 16.3271 68.3906 16.3699Z" fill="#C93B13"/>
<path d="M108.253 38.5342C108.253 36.8083 108.253 35.2321 108.253 33.6488C108.253 30.5107 108.217 27.3726 108.267 24.2345C108.332 20.6899 110.935 18.101 114.658 18.0154C114.658 19.834 114.658 21.6527 114.658 23.4714C114.658 26.2529 114.701 29.0415 114.644 31.823C114.558 35.6458 112.418 37.9779 108.253 38.5342Z" fill="black"/>
<path d="M197.477 18.0399C197.477 19.502 197.477 20.964 197.477 22.419C197.477 25.7996 197.512 29.1801 197.455 32.5607C197.405 35.8272 194.588 38.4732 191.143 38.3591C191.143 36.1339 191.143 33.8944 191.143 31.655C191.143 29.2229 191.079 26.7909 191.165 24.366C191.293 20.6716 193.711 18.204 197.469 18.0399H197.477Z" fill="black"/>
<path d="M209.173 17.8192C210.072 20.9288 209.088 23.9385 206.506 25.2508C204.166 26.4347 201.592 27.1622 199.131 28.0893C197.897 25.0083 199.231 21.6562 202.226 20.3297C204.437 19.3526 206.777 18.6751 209.173 17.8192Z" fill="black"/>
<path d="M163.534 21.2767C162.928 21.2767 162.286 21.2767 161.651 21.2767C157.928 21.2695 156.373 19.2512 157.372 15.6138C157.458 15.3 158.264 14.9363 158.67 15.0005C161.48 15.4355 163.919 18.5879 163.534 21.2695V21.2767Z" fill="black"/>
<path d="M108.545 17.5038C108.595 14.1803 110.742 11.9979 114.115 11.734C114.885 14.5298 112.111 17.4682 108.545 17.5038Z" fill="black"/>
</svg>
